<?xml version="1.0"?><!DOCTYPE svg PUBLIC "-//W3C//DTD SVG 1.1//EN"	"http://www.w3.org/Graphics/SVG/1.1/DTD/svg11.dtd">
<svg xmlns="http://www.w3.org/2000/svg" width="960" height="700" viewBox = "241 1810.8 303.6 191.6" preserveAspectRatio = "xMidYMid meet">
<circle cx = "417.133" cy = "1869.73" r = "2" style = "fill:green" />
<line x1="401.8" y1="1891" x2="417.133" y2="1869.73" style="stroke:#aaa; stroke-width:1; " stroke-dasharray="1, 1"/><circle cx = "401.8" cy = "1891" r = "1" style = "fill:red" />
<line x1="447.8" y1="1867.4" x2="417.133" y2="1869.73" style="stroke:#aaa; stroke-width:1; " stroke-dasharray="1, 1"/><circle cx = "447.8" cy = "1867.4" r = "1" style = "fill:red" />
<line x1="401.8" y1="1850.8" x2="417.133" y2="1869.73" style="stroke:#aaa; stroke-width:1; " stroke-dasharray="1, 1"/><circle cx = "401.8" cy = "1850.8" r = "1" style = "fill:red" />
<circle cx = "417" cy = "1928.95" r = "2" style = "fill:green" />
<line x1="388.2" y1="1942.6" x2="417" y2="1928.95" style="stroke:#aaa; stroke-width:1; " stroke-dasharray="1, 1"/><circle cx = "388.2" cy = "1942.6" r = "1" style = "fill:red" />
<line x1="430.4" y1="1911.8" x2="417" y2="1928.95" style="stroke:#aaa; stroke-width:1; " stroke-dasharray="1, 1"/><circle cx = "430.4" cy = "1911.8" r = "1" style = "fill:red" />
<line x1="409.4" y1="1940.4" x2="417" y2="1928.95" style="stroke:#aaa; stroke-width:1; " stroke-dasharray="1, 1"/><circle cx = "409.4" cy = "1940.4" r = "1" style = "fill:red" />
<line x1="440" y1="1921" x2="417" y2="1928.95" style="stroke:#aaa; stroke-width:1; " stroke-dasharray="1, 1"/><circle cx = "440" cy = "1921" r = "1" style = "fill:red" />
<circle cx = "323.4" cy = "1932.37" r = "2" style = "fill:green" />
<line x1="330.6" y1="1947.6" x2="323.4" y2="1932.37" style="stroke:#aaa; stroke-width:1; " stroke-dasharray="1, 1"/><circle cx = "330.6" cy = "1947.6" r = "1" style = "fill:red" />
<line x1="281" y1="1962.4" x2="323.4" y2="1932.37" style="stroke:#aaa; stroke-width:1; " stroke-dasharray="1, 1"/><circle cx = "281" cy = "1962.4" r = "1" style = "fill:red" />
<line x1="326" y1="1947.6" x2="323.4" y2="1932.37" style="stroke:#aaa; stroke-width:1; " stroke-dasharray="1, 1"/><circle cx = "326" cy = "1947.6" r = "1" style = "fill:red" />
<line x1="344" y1="1925.8" x2="323.4" y2="1932.37" style="stroke:#aaa; stroke-width:1; " stroke-dasharray="1, 1"/><circle cx = "344" cy = "1925.8" r = "1" style = "fill:red" />
<line x1="329.4" y1="1888.8" x2="323.4" y2="1932.37" style="stroke:#aaa; stroke-width:1; " stroke-dasharray="1, 1"/><circle cx = "329.4" cy = "1888.8" r = "1" style = "fill:red" />
<line x1="329.4" y1="1922" x2="323.4" y2="1932.37" style="stroke:#aaa; stroke-width:1; " stroke-dasharray="1, 1"/><circle cx = "329.4" cy = "1922" r = "1" style = "fill:red" />
<circle cx = "504.6" cy = "1944.8" r = "2" style = "fill:green" />
<line x1="504.6" y1="1944.8" x2="504.6" y2="1944.8" style="stroke:#aaa; stroke-width:1; " stroke-dasharray="1, 1"/><circle cx = "504.6" cy = "1944.8" r = "1" style = "fill:red" />
</svg>